<svg width="90" height="90" viewBox="0 0 90 90" fill="none" xmlns="http://www.w3.org/2000/svg">
<path fill-rule="evenodd" clip-rule="evenodd" d="M22.5 40.5C24.8869 40.5 27.1761 39.5518 28.864 37.864C30.5518 36.1761 31.5 33.8869 31.5 31.5C31.5 29.1131 30.5518 26.8239 28.864 25.136C27.1761 23.4482 24.8869 22.5 22.5 22.5C20.1131 22.5 17.8239 23.4482 16.136 25.136C14.4482 26.8239 13.5 29.1131 13.5 31.5C13.5 33.8869 14.4482 36.1761 16.136 37.864C17.8239 39.5518 20.1131 40.5 22.5 40.5ZM22.5 45C24.2728 45 26.0283 44.6508 27.6662 43.9724C29.3041 43.2939 30.7924 42.2995 32.0459 41.0459C33.2995 39.7924 34.2939 38.3041 34.9724 36.6662C35.6508 35.0283 36 33.2728 36 31.5C36 29.7272 35.6508 27.9717 34.9724 26.3338C34.2939 24.6959 33.2995 23.2076 32.0459 21.9541C30.7924 20.7005 29.3041 19.7061 27.6662 19.0276C26.0283 18.3492 24.2728 18 22.5 18C18.9196 18 15.4858 19.4223 12.9541 21.9541C10.4223 24.4858 9 27.9196 9 31.5C9 35.0804 10.4223 38.5142 12.9541 41.0459C15.4858 43.5777 18.9196 45 22.5 45Z" fill="#3057B6"/>
<path fill-rule="evenodd" clip-rule="evenodd" d="M17.343 40.032C17.5525 40.241 17.7188 40.4893 17.8322 40.7627C17.9456 41.036 18.004 41.3291 18.004 41.625C18.004 41.921 17.9456 42.214 17.8322 42.4874C17.7188 42.7607 17.5525 43.009 17.343 43.218L15.822 44.7345C12.8949 47.6624 11.2504 51.6329 11.25 55.773V64.125C11.25 64.7218 11.0129 65.2941 10.591 65.716C10.169 66.138 9.59674 66.375 9 66.375C8.40326 66.375 7.83097 66.138 7.40901 65.716C6.98705 65.2941 6.75 64.7218 6.75 64.125V55.773C6.75064 50.4395 8.86944 45.3246 12.6405 41.553L14.157 40.032C14.366 39.8225 14.6143 39.6562 14.8876 39.5428C15.161 39.4294 15.454 39.371 15.75 39.371C16.046 39.371 16.339 39.4294 16.6124 39.5428C16.8857 39.6562 17.134 39.8225 17.343 40.032ZM70.407 38.682C70.1975 38.891 70.0312 39.1393 69.9178 39.4127C69.8044 39.686 69.746 39.9791 69.746 40.275C69.746 40.571 69.8044 40.864 69.9178 41.1374C70.0312 41.4107 70.1975 41.659 70.407 41.868L71.928 43.3845C74.8551 46.3124 76.4996 50.2829 76.5 54.423V64.125C76.5 64.7218 76.7371 65.2941 77.159 65.716C77.581 66.138 78.1533 66.375 78.75 66.375C79.3467 66.375 79.919 66.138 80.341 65.716C80.7629 65.2941 81 64.7218 81 64.125V54.423C80.9994 49.0895 78.8806 43.9746 75.1095 40.203L73.593 38.682C73.384 38.4725 73.1357 38.3062 72.8624 38.1928C72.589 38.0794 72.296 38.021 72 38.021C71.704 38.021 71.411 38.0794 71.1376 38.1928C70.8643 38.3062 70.616 38.4725 70.407 38.682Z" fill="#3057B6"/>
<path fill-rule="evenodd" clip-rule="evenodd" d="M63 40.5C60.6131 40.5 58.3239 39.5518 56.636 37.864C54.9482 36.1761 54 33.8869 54 31.5C54 29.1131 54.9482 26.8239 56.636 25.136C58.3239 23.4482 60.6131 22.5 63 22.5C65.3869 22.5 67.6761 23.4482 69.364 25.136C71.0518 26.8239 72 29.1131 72 31.5C72 33.8869 71.0518 36.1761 69.364 37.864C67.6761 39.5518 65.3869 40.5 63 40.5ZM63 45C61.2272 45 59.4717 44.6508 57.8338 43.9724C56.1959 43.2939 54.7076 42.2995 53.4541 41.0459C52.2005 39.7924 51.2061 38.3041 50.5276 36.6662C49.8492 35.0283 49.5 33.2728 49.5 31.5C49.5 29.7272 49.8492 27.9717 50.5276 26.3338C51.2061 24.6959 52.2005 23.2076 53.4541 21.9541C54.7076 20.7005 56.1959 19.7061 57.8338 19.0276C59.4717 18.3492 61.2272 18 63 18C66.5804 18 70.0142 19.4223 72.5459 21.9541C75.0777 24.4858 76.5 27.9196 76.5 31.5C76.5 35.0804 75.0777 38.5142 72.5459 41.0459C70.0142 43.5777 66.5804 45 63 45ZM42.75 59.625C39.7663 59.625 36.9048 60.8103 34.795 62.92C32.6853 65.0298 31.5 67.8913 31.5 70.875V76.725C31.5 77.3217 31.2629 77.894 30.841 78.316C30.419 78.7379 29.8467 78.975 29.25 78.975C28.6533 78.975 28.081 78.7379 27.659 78.316C27.2371 77.894 27 77.3217 27 76.725V70.875C27 66.6978 28.6594 62.6918 31.6131 59.7381C34.5668 56.7844 38.5728 55.125 42.75 55.125C46.9272 55.125 50.9332 56.7844 53.8869 59.7381C56.8406 62.6918 58.5 66.6978 58.5 70.875V76.725C58.5 77.3217 58.2629 77.894 57.841 78.316C57.419 78.7379 56.8467 78.975 56.25 78.975C55.6533 78.975 55.081 78.7379 54.659 78.316C54.2371 77.894 54 77.3217 54 76.725V70.875C54 69.3976 53.709 67.9347 53.1436 66.5698C52.5783 65.2049 51.7496 63.9647 50.705 62.92C49.6603 61.8754 48.4201 61.0467 47.0552 60.4814C45.6903 59.916 44.2274 59.625 42.75 59.625Z" fill="#3057B6"/>
<path fill-rule="evenodd" clip-rule="evenodd" d="M42.75 52.875C45.1369 52.875 47.4261 51.9268 49.114 50.239C50.8018 48.5511 51.75 46.2619 51.75 43.875C51.75 41.4881 50.8018 39.1989 49.114 37.511C47.4261 35.8232 45.1369 34.875 42.75 34.875C40.3631 34.875 38.0739 35.8232 36.386 37.511C34.6982 39.1989 33.75 41.4881 33.75 43.875C33.75 46.2619 34.6982 48.5511 36.386 50.239C38.0739 51.9268 40.3631 52.875 42.75 52.875ZM42.75 57.375C46.3304 57.375 49.7642 55.9527 52.2959 53.4209C54.8277 50.8892 56.25 47.4554 56.25 43.875C56.25 40.2946 54.8277 36.8608 52.2959 34.3291C49.7642 31.7973 46.3304 30.375 42.75 30.375C39.1696 30.375 35.7358 31.7973 33.2041 34.3291C30.6723 36.8608 29.25 40.2946 29.25 43.875C29.25 47.4554 30.6723 50.8892 33.2041 53.4209C35.7358 55.9527 39.1696 57.375 42.75 57.375Z" fill="#3057B6"/>
</svg>
