<svg width="90" height="90" viewBox="0 0 90 90" fill="none" xmlns="http://www.w3.org/2000/svg">
<path d="M9.375 30.7013C9.765 22.8263 10.9312 17.9138 14.4263 14.4263C17.9138 10.9312 22.8263 9.765 30.7013 9.375M80.625 30.7013C80.235 22.8263 79.0688 17.9138 75.5738 14.4263C72.0863 10.9312 67.1738 9.765 59.2988 9.375M59.2988 80.625C67.1738 80.235 72.0863 79.0688 75.5738 75.5738C79.0688 72.0863 80.235 67.1738 80.625 59.2988M30.7013 80.625C22.8263 80.235 17.9138 79.0688 14.4263 75.5738C10.9312 72.0863 9.765 67.1738 9.375 59.2988" stroke="#3057B6" stroke-width="4" stroke-linecap="round" stroke-linejoin="round"/>
<path d="M73.6313 42.4425C74.5425 43.5825 75 44.1563 75 45C75 45.8438 74.5425 46.4175 73.6313 47.5575C69.5325 52.6875 59.0663 63.75 45 63.75C30.9338 63.75 20.4675 52.6875 16.3688 47.5575C15.4575 46.4175 15 45.8438 15 45C15 44.1563 15.4575 43.5825 16.3688 42.4425C20.4675 37.3125 30.9338 26.25 45 26.25C59.0663 26.25 69.5325 37.3125 73.6313 42.4425Z" stroke="#3057B6" stroke-width="4"/>
<path d="M52.5 45C52.5 43.0109 51.7098 41.1032 50.3033 39.6967C48.8968 38.2902 46.9891 37.5 45 37.5C43.0109 37.5 41.1032 38.2902 39.6967 39.6967C38.2902 41.1032 37.5 43.0109 37.5 45C37.5 46.9891 38.2902 48.8968 39.6967 50.3033C41.1032 51.7098 43.0109 52.5 45 52.5C46.9891 52.5 48.8968 51.7098 50.3033 50.3033C51.7098 48.8968 52.5 46.9891 52.5 45Z" stroke="#3057B6" stroke-width="4"/>
</svg>
