<svg width="75" height="82" viewBox="0 0 75 82" fill="none" xmlns="http://www.w3.org/2000/svg">
<path d="M39.7237 79.7175L39.6825 79.725L39.4162 79.8563L39.3412 79.8713L39.2887 79.8563L39.0225 79.725C38.9825 79.7125 38.9525 79.7188 38.9325 79.7438L38.9175 79.7813L38.8537 81.3863L38.8725 81.4613L38.91 81.51L39.3 81.7875L39.3562 81.8025L39.4012 81.7875L39.7912 81.51L39.8362 81.45L39.8512 81.3863L39.7875 79.785C39.7775 79.745 39.7562 79.7225 39.7237 79.7175ZM40.7175 79.2938L40.6687 79.3013L39.975 79.65L39.9375 79.6875L39.9262 79.7288L39.9937 81.3413L40.0125 81.3863L40.0425 81.4125L40.7962 81.7613C40.8437 81.7738 40.88 81.7638 40.905 81.7313L40.92 81.6788L40.7925 79.3763C40.78 79.3313 40.755 79.3038 40.7175 79.2938ZM38.0362 79.3013C38.0197 79.2912 37.9999 79.288 37.9811 79.2922C37.9622 79.2964 37.9457 79.3077 37.935 79.3238L37.9125 79.3763L37.785 81.6788C37.7875 81.7238 37.8087 81.7538 37.8487 81.7688L37.905 81.7613L38.6587 81.4125L38.6962 81.3825L38.7112 81.3413L38.775 79.7288L38.7637 79.6838L38.7262 79.6463L38.0362 79.3013Z" fill="#3057B6"/>
<path d="M37.5 0C38.9075 0 40.295 0.0762504 41.6625 0.22875C42.152 0.282921 42.626 0.432974 43.0576 0.670346C43.4891 0.907717 43.8696 1.22776 44.1774 1.61219C44.4852 1.99663 44.7143 2.43793 44.8516 2.9109C44.9889 3.38387 45.0317 3.87925 44.9775 4.36875C44.9233 4.85825 44.7733 5.33229 44.5359 5.7638C44.2985 6.19531 43.9785 6.57585 43.5941 6.88367C43.2096 7.1915 42.7683 7.42059 42.2954 7.55787C41.8224 7.69515 41.327 7.73792 40.8375 7.68375C34.6577 6.99242 28.4157 8.23852 22.975 11.2497C17.5344 14.2609 13.1638 18.8883 10.468 24.492C7.77217 30.0956 6.88426 36.3985 7.92709 42.5288C8.96993 48.6591 11.892 54.3139 16.289 58.711C20.6861 63.108 26.3409 66.0301 32.4712 67.0729C38.6015 68.1157 44.9044 67.2278 50.508 64.532C56.1117 61.8362 60.7391 57.4656 63.7503 52.025C66.7615 46.5843 68.0076 40.3423 67.3163 34.1625C67.2621 33.673 67.3048 33.1776 67.4421 32.7046C67.5794 32.2317 67.8085 31.7904 68.1163 31.4059C68.738 30.6295 69.6427 30.1319 70.6312 30.0225C71.6198 29.9131 72.6114 30.2009 73.3878 30.8226C73.7722 31.1304 74.0923 31.5109 74.3297 31.9424C74.567 32.374 74.7171 32.848 74.7712 33.3375C74.9212 34.705 74.9975 36.0925 75 37.5C75 58.2113 58.2113 75 37.5 75C16.7888 75 0 58.2113 0 37.5C0 16.7888 16.7888 0 37.5 0ZM37.38 22.0387C37.6271 23.0015 37.482 24.0229 36.9764 24.8787C36.4708 25.7344 35.6462 26.3544 34.6838 26.6025C32.0395 27.2952 29.7376 28.9263 28.2076 31.1914C26.6776 33.4566 26.0241 36.201 26.3689 38.9126C26.7137 41.6242 28.0333 44.1178 30.0815 45.9279C32.1297 47.7381 34.7666 48.7411 37.5 48.75C39.9949 48.751 42.4193 47.9227 44.3921 46.3954C46.3648 44.868 47.7738 42.7282 48.3975 40.3125C48.6633 39.3688 49.2881 38.5668 50.1381 38.0782C50.988 37.5895 51.9955 37.4532 52.9448 37.6984C53.894 37.9435 54.7095 38.5507 55.2166 39.3897C55.7236 40.2288 55.8819 41.2331 55.6575 42.1875C54.5071 46.5972 51.7906 50.4373 48.0156 52.9904C44.2405 55.5435 39.6651 56.6348 35.1441 56.0606C30.6231 55.4864 26.4658 53.2859 23.4488 49.8702C20.4318 46.4546 18.7615 42.0573 18.75 37.5C18.7494 33.3427 20.1304 29.3031 22.6759 26.0163C25.2215 22.7294 28.7872 20.3818 32.8125 19.3425C33.2894 19.2196 33.7859 19.1918 34.2736 19.2608C34.7613 19.3298 35.2306 19.4941 35.6548 19.7445C36.0789 19.9949 36.4496 20.3264 36.7456 20.72C37.0416 21.1137 37.2572 21.5618 37.38 22.0387ZM61.89 0.47625C62.5745 0.760047 63.1595 1.24026 63.5713 1.85629C63.9831 2.47231 64.2032 3.19652 64.2038 3.9375V10.8H71.0625C71.8041 10.8002 72.5289 11.0202 73.1455 11.4322C73.762 11.8443 74.2425 12.4299 74.5263 13.115C74.8101 13.8002 74.8843 14.554 74.7397 15.2814C74.5951 16.0087 74.238 16.6768 73.7137 17.2013L60.45 30.45C59.7469 31.1533 58.7932 31.5485 57.7988 31.5487H48.75L41.895 38.4075C41.1913 39.1112 40.237 39.5065 39.2419 39.5065C38.2468 39.5065 37.2924 39.1112 36.5887 38.4075C35.8851 37.7038 35.4898 36.7495 35.4898 35.7544C35.4898 34.7593 35.8851 33.8049 36.5887 33.1012L43.4475 26.25V17.1975C43.4477 16.203 43.8429 15.2493 44.5462 14.5463L57.8025 1.28625C58.3269 0.761502 58.9952 0.404094 59.7228 0.259243C60.4504 0.114391 61.2046 0.188607 61.89 0.4725M56.7038 12.9862L50.9475 18.75V24.0525H56.25L62.01 18.2963H60.4538C59.4592 18.2963 58.5054 17.9012 57.8021 17.1979C57.0988 16.4946 56.7038 15.5408 56.7038 14.5463V12.9862Z" fill="#3057B6"/>
</svg>
