<svg width="90" height="90" viewBox="0 0 90 90" fill="none" xmlns="http://www.w3.org/2000/svg">
<path d="M76.8407 35.2413C76.8407 43.6911 73.4841 51.7949 67.5091 57.7698C61.5342 63.7447 53.4305 67.1013 44.9807 67.1013C36.5309 67.1013 28.4272 63.7447 22.4523 57.7698C16.4774 51.7949 13.1207 43.6911 13.1207 35.2413C13.1207 26.7915 16.4774 18.6878 22.4523 12.7129C28.4272 6.73802 36.5309 3.38135 44.9807 3.38135C53.4305 3.38135 61.5342 6.73802 67.5091 12.7129C73.4841 18.6878 76.8407 26.7915 76.8407 35.2413Z" stroke="#3057B6" stroke-width="2" stroke-linecap="round" stroke-linejoin="round"/>
<path d="M17.3829 50.8692L3.21429 75.4135L18.5207 71.3121L22.6286 86.6185L34.92 65.327M72.6171 50.8692L86.7857 75.4135L71.4729 71.3121L67.3714 86.6185L55.08 65.327M46.2857 17.942L50.6764 26.7749C50.7718 26.9993 50.9261 27.1937 51.1231 27.3375C51.32 27.4812 51.5522 27.5689 51.795 27.5913L61.5472 29.0699C61.8262 29.1056 62.0893 29.2201 62.3056 29.4001C62.5218 29.5801 62.6822 29.8181 62.7679 30.086C62.8537 30.354 62.8611 30.6409 62.7895 30.9129C62.7179 31.185 62.5701 31.431 62.3636 31.622L55.1571 38.462C55.0491 38.666 54.9926 38.8934 54.9926 39.1242C54.9926 39.355 55.0491 39.5824 55.1571 39.7863L56.5393 49.4806C56.5993 49.7616 56.5761 50.0539 56.4727 50.3219C56.3692 50.5899 56.1899 50.8219 55.9567 50.9897C55.7235 51.1574 55.4465 51.2536 55.1595 51.2664C54.8725 51.2793 54.588 51.2083 54.3407 51.062L45.6622 46.472C45.4379 46.3709 45.1946 46.3186 44.9486 46.3186C44.7025 46.3186 44.4593 46.3709 44.235 46.472L35.5564 51.062C35.3094 51.2043 35.0265 51.2722 34.7418 51.2574C34.4571 51.2426 34.1828 51.1458 33.9518 50.9787C33.7208 50.8116 33.5431 50.5813 33.44 50.3155C33.3369 50.0497 33.3128 49.7598 33.3707 49.4806L35.0036 39.7863C35.0744 39.5616 35.088 39.3228 35.0431 39.0916C34.9982 38.8603 34.8962 38.6439 34.7464 38.462L27.5529 31.5642C27.3595 31.3708 27.2236 31.1277 27.1602 30.8617C27.0968 30.5958 27.1083 30.3175 27.1936 30.0577C27.2789 29.7979 27.4345 29.5668 27.6432 29.3902C27.8519 29.2136 28.1054 29.0982 28.3757 29.057L38.1214 27.6428C38.3642 27.6204 38.5964 27.5326 38.7934 27.3889C38.9903 27.2452 39.1447 27.0507 39.24 26.8263L43.6307 17.9935C43.7476 17.7428 43.9325 17.5299 44.1643 17.379C44.3961 17.2281 44.6656 17.1453 44.9422 17.1399C45.2187 17.1346 45.4913 17.2069 45.7288 17.3487C45.9663 17.4905 46.1592 17.6961 46.2857 17.942Z" stroke="#3057B6" stroke-width="2" stroke-linecap="round" stroke-linejoin="round"/>
</svg>
