<svg width="90" height="90" viewBox="0 0 90 90" fill="none" xmlns="http://www.w3.org/2000/svg">
<path d="M45 5.625L11.25 16.875V50.625C11.25 69.2666 26.3584 84.375 45 84.375C63.6416 84.375 78.75 69.2666 78.75 50.625V16.875L45 5.625ZM72.4219 50.625C72.4219 65.7686 60.1436 78.0469 45 78.0469C29.8564 78.0469 17.5781 65.7686 17.5781 50.625V21.6211L45 11.9531L72.4219 21.6211V50.625Z" fill="#3057B6"/>
<path d="M33.2578 41.7568C32.9646 41.4622 32.616 41.2285 32.2321 41.069C31.8483 40.9094 31.4367 40.8273 31.021 40.8273C30.6053 40.8273 30.1937 40.9094 29.8099 41.069C29.426 41.2285 29.0774 41.4622 28.7842 41.7568C28.4896 42.0501 28.2558 42.3987 28.0963 42.7825C27.9368 43.1664 27.8547 43.578 27.8547 43.9937C27.8547 44.4093 27.9368 44.8209 28.0963 45.2048C28.2558 45.5886 28.4896 45.9372 28.7842 46.2305L40.1572 57.6035L40.3418 57.7881C40.6192 58.066 40.9487 58.2865 41.3114 58.4369C41.6741 58.5874 42.0629 58.6648 42.4556 58.6648C42.8482 58.6648 43.237 58.5874 43.5998 58.4369C43.9625 58.2865 44.2919 58.066 44.5693 57.7881L64.2129 38.1445C64.4908 37.8671 64.7113 37.5377 64.8617 37.175C65.0122 36.8122 65.0896 36.4234 65.0896 36.0308C65.0896 35.6381 65.0122 35.2493 64.8617 34.8866C64.7113 34.5239 64.4908 34.1944 64.2129 33.917L63.9668 33.6709C63.6894 33.393 63.3599 33.1725 62.9972 33.0221C62.6345 32.8716 62.2457 32.7942 61.853 32.7942C61.4604 32.7942 61.0715 32.8716 60.7088 33.0221C60.3461 33.1725 60.0167 33.393 59.7393 33.6709L42.4512 50.9502L33.2578 41.7568Z" fill="#3057B6"/>
</svg>
